<?xml version="1.0" encoding="utf-8"?>
<!-- Generator: Adobe Illustrator 16.0.0, SVG Export Plug-In . SVG Version: 6.00 Build 0)  -->
<!DOCTYPE svg PUBLIC "-//W3C//DTD SVG 1.1//EN" "http://www.w3.org/Graphics/SVG/1.1/DTD/svg11.dtd">
<svg version="1.1" id="Artwork" xmlns="http://www.w3.org/2000/svg" xmlns:xlink="http://www.w3.org/1999/xlink" x="0px" y="0px"
	 width="512px" height="512px" viewBox="0 0 512 512" enable-background="new 0 0 512 512" xml:space="preserve">
<path d="M360.745,405.599h-43.219c-1.559,0-2.834-1.275-2.834-2.834v-10.52c0-1.559-1.275-2.834-2.834-2.834h-60.474
	c-1.56,0-2.835,1.275-2.835,2.834v10.52c0,1.559-1.275,2.834-2.835,2.834h-32.491c-1.56,0-2.835,1.275-2.835,2.834v12.169
	c0,1.559,1.275,2.834,2.835,2.834h147.521c1.559,0,2.834-1.275,2.834-2.834v-12.169
	C363.579,406.875,362.304,405.599,360.745,405.599z"/>
<g>
	<path d="M433.357,121.065h-308.4c-10.73,0-19.459,8.73-19.459,19.462c0,0,0,37.109,0,50.761c0,6.711-0.498,7.66,4.004,7.66
		c2.391,0,5.039,0,7.72,0c3.778,0,3.003-0.949,3.003-7.785c0-13.621,0-50.636,0-50.636c0-2.565,2.168-4.733,4.732-4.733h308.4
		c2.564,0,4.732,2.168,4.732,4.733v189.999H218.219c0,0-7.749-0.014-7.749,10.006c0,5.941,0,17.823,0,23.765
		c0,10.006,8,10.006,8,10.006h214.888c10.73,0,19.461-8.729,19.461-19.459V140.527C452.818,129.796,444.088,121.065,433.357,121.065
		z M279.158,357.501c-4.844,0-8.77-3.926-8.77-8.768s3.926-8.769,8.77-8.769c4.84,0,8.767,3.927,8.767,8.769
		S283.998,357.501,279.158,357.501z"/>
	<path d="M180.45,216.33H68.884c-6.927,0-12.559,5.633-12.559,12.56v183.373c0,6.924,5.632,12.56,12.559,12.56H180.45
		c6.923,0,12.559-5.636,12.559-12.56V228.89C193.009,221.963,187.373,216.33,180.45,216.33z M110.905,229.14h27.523
		c1.313,0,2.38,1.064,2.38,2.381c0,1.314-1.066,2.379-2.38,2.379h-27.523c-1.315,0-2.379-1.065-2.379-2.379
		C108.526,230.204,109.59,229.14,110.905,229.14z M124.5,416c-3.59,0-6.5-2.91-6.5-6.5s2.91-6.5,6.5-6.5s6.5,2.91,6.5,6.5
		S128.09,416,124.5,416z M182.218,396.897c0,1.675-1.342,3.046-2.98,3.046H70.099c-1.639,0-2.98-1.371-2.98-3.046V244.522
		c0-1.676,1.342-3.046,2.98-3.046h109.139c1.639,0,2.98,1.371,2.98,3.046V396.897z"/>
</g>
</svg>
